<?xml version="1.0" encoding="utf-8"?>
<!-- Generator: Adobe Illustrator 26.3.1, SVG Export Plug-In . SVG Version: 6.00 Build 0)  -->
<svg version="1.1" id="Capa_1" xmlns="http://www.w3.org/2000/svg" xmlns:xlink="http://www.w3.org/1999/xlink" x="0px" y="0px"
	 viewBox="0 0 546.9 168.7" style="enable-background:new 0 0 546.9 168.7;" xml:space="preserve">
<g>
	<g>
		<path d="M240,60.9c-6.4-4.4-13.1-5.6-17.6-5.6c-9.7,0-14.9,3.1-14.9,9.2c0,4.5,2.8,6.6,8.5,8.9l13.6,5.8
			c10.3,4.3,16.8,10.4,16.8,21.9c0,15.8-11,26.1-31.2,26.1c-8,0-17.9-2.5-22.7-6.4v-16.4c6.1,4.8,15.6,7.8,23.1,7.8
			c8.7,0,14-3.1,14-9.7c0-4.5-2.8-6.7-9.1-9.3l-14.5-6c-8.6-3.6-15.3-9.2-15.3-21.6c0-14.8,12.4-25.4,32.2-25.4
			c7.7,0,15.9,1.8,20.9,5.5L240,60.9z"/>
		<path d="M255.3,37.9h16v16.4h-16V37.9z M255.4,64.2h15.8v61.6h-15.8V64.2z"/>
		<path d="M321.2,62.9c17.3,0,28.2,14,28.2,32.2c0,18.1-10.9,32.1-28.4,32.1c-9.2,0-16.4-4.4-20.5-11.3V146h-15.8V64.2H300l0.1,10.7
			C304.2,67.7,311.5,62.9,321.2,62.9z M333.5,95.1c0-10.2-5.8-18.6-16.5-18.6s-16.4,8.5-16.4,18.6s5.6,18.5,16.4,18.5
			S333.5,105.3,333.5,95.1z"/>
		<path d="M422.3,95c0,18.5-12.2,32.8-33.1,32.8c-20.8,0-33.1-14.3-33.1-32.8c0-18.4,12.2-32.7,33.1-32.7
			C410,62.3,422.3,76.6,422.3,95z M372,95c0,10.2,5.9,19.1,17.1,19.1c11.3,0,17.1-8.9,17.1-19.1s-5.9-19-17.1-19
			C377.9,76,372,84.8,372,95z"/>
		<path d="M429.6,107.2h17.8v18.6h-17.8V107.2z"/>
		<path d="M489.9,77.1c-8.8,0-19.1,4.5-19.1,17.1c0,13.6,10.3,19.4,21.4,19.4c4.5,0,9.8-1.5,13.4-3.8v14c-2.8,1.7-8.8,3.6-15.7,3.6
			c-14.9,0-35.2-8.2-35.2-32.2c0-25.4,21.4-32.1,35.4-32.1c7.6,0,12.7,1.7,16,4l-3.7,13.6C499.2,78.6,494.8,77.1,489.9,77.1z"/>
		<path d="M515.2,37.9H531v87.9h-15.8V37.9z"/>
	</g>
	<path d="M151.6,45.7c0-0.2,0-0.3,0-0.5c0-0.2-0.1-0.4-0.1-0.6c0-0.1-0.1-0.2-0.1-0.3c-0.1-0.2-0.2-0.5-0.3-0.7c0,0,0,0,0,0
		c0,0,0,0,0,0c0,0,0,0,0,0c0,0,0,0,0,0c0,0,0,0,0,0c0,0,0,0,0,0c0,0,0,0,0,0c0,0,0,0,0,0c-0.1-0.2-0.3-0.4-0.4-0.6
		c-0.1-0.1-0.1-0.1-0.2-0.2c-0.1-0.2-0.3-0.3-0.5-0.4c-0.1-0.1-0.2-0.2-0.4-0.3c-0.1-0.1-0.1-0.1-0.2-0.2L116,22.7c0,0,0,0,0,0
		L82.8,3.5c-0.1,0-0.1-0.1-0.2-0.1c-0.1,0-0.1-0.1-0.2-0.1c-0.1-0.1-0.3-0.1-0.4-0.2c-0.1,0-0.1,0-0.2-0.1c0,0-0.1,0-0.1,0
		c0,0,0,0,0,0c-0.2-0.1-0.4-0.1-0.6-0.1c0,0,0,0,0,0c0,0-0.1,0-0.1,0c-0.1,0-0.1,0-0.2,0c-0.2,0-0.3,0-0.4,0c-0.1,0-0.1,0-0.2,0
		c0,0-0.1,0-0.1,0c0,0-0.1,0-0.1,0C79.5,2.9,79.3,3,79,3c-0.1,0-0.1,0-0.2,0.1c-0.1,0-0.3,0.1-0.4,0.2c-0.1,0-0.1,0.1-0.2,0.1
		c-0.1,0-0.1,0.1-0.2,0.1L53.7,17.5l-8.9,5.1c0,0,0,0,0,0L11.5,41.8c-0.1,0-0.2,0.1-0.2,0.2c-0.1,0.1-0.2,0.2-0.4,0.3
		c-0.2,0.1-0.3,0.3-0.5,0.4c-0.1,0.1-0.1,0.1-0.2,0.2c-0.2,0.2-0.3,0.4-0.5,0.6c0,0,0,0,0,0c0,0,0,0,0,0c0,0,0,0,0,0c0,0,0,0,0,0
		c0,0,0,0,0,0c0,0,0,0,0,0c0,0,0,0,0,0c0,0,0,0,0,0c-0.1,0.2-0.2,0.5-0.3,0.7c0,0.1-0.1,0.2-0.1,0.3c-0.1,0.2-0.1,0.4-0.1,0.6
		c0,0.2,0,0.3,0,0.5c0,0.1,0,0.2,0,0.3v38.4v38.4c0,0.1,0,0.1,0,0.2c0,0.1,0,0.1,0,0.2c0,0.1,0,0.3,0.1,0.4c0,0.1,0,0.1,0,0.2
		c0,0.1,0,0.1,0,0.2c0,0,0,0,0,0c0.1,0.2,0.1,0.4,0.2,0.6c0,0,0,0.1,0,0.1c0,0,0,0,0,0.1c0,0.1,0.1,0.1,0.1,0.2
		c0.1,0.1,0.1,0.3,0.2,0.4c0,0.1,0.1,0.1,0.1,0.2c0,0,0,0,0,0.1c0,0,0,0,0,0.1c0.1,0.2,0.3,0.3,0.4,0.5c0,0,0,0,0,0
		c0,0,0.1,0.1,0.1,0.1c0.1,0,0.1,0.1,0.2,0.1c0.1,0.1,0.2,0.2,0.3,0.3c0.1,0,0.1,0.1,0.2,0.1c0.1,0,0.1,0.1,0.2,0.1L78,165.2
		c0.1,0,0.2,0.1,0.3,0.1c0.1,0.1,0.3,0.1,0.4,0.2c0.2,0.1,0.4,0.1,0.6,0.2c0.1,0,0.2,0,0.3,0.1c0.3,0,0.5,0.1,0.8,0.1c0,0,0,0,0,0
		c0,0,0,0,0,0c0,0,0,0,0,0c0,0,0,0,0,0c0,0,0,0,0,0c0,0,0,0,0,0c0.3,0,0.5,0,0.8-0.1c0.1,0,0.2,0,0.3-0.1c0.2,0,0.4-0.1,0.6-0.2
		c0.1-0.1,0.3-0.1,0.4-0.2c0.1,0,0.2-0.1,0.2-0.1L116,146l33.3-19.2c0.1,0,0.1-0.1,0.2-0.1c0.1,0,0.1-0.1,0.2-0.1
		c0.1-0.1,0.2-0.2,0.3-0.3c0.1,0,0.1-0.1,0.2-0.1c0,0,0.1-0.1,0.1-0.1c0,0,0,0,0,0c0.1-0.1,0.3-0.3,0.4-0.5c0,0,0,0,0-0.1
		c0,0,0,0,0-0.1c0-0.1,0.1-0.1,0.1-0.2c0.1-0.1,0.1-0.2,0.2-0.4c0-0.1,0.1-0.1,0.1-0.2c0,0,0,0,0-0.1c0,0,0-0.1,0-0.1
		c0.1-0.2,0.1-0.4,0.2-0.6c0,0,0,0,0,0c0-0.1,0-0.1,0-0.2c0-0.1,0-0.1,0-0.2c0-0.1,0-0.3,0.1-0.4c0-0.1,0-0.1,0-0.2
		c0-0.1,0-0.1,0-0.2V84.3V45.9C151.6,45.8,151.6,45.8,151.6,45.7z M124.1,130.5l-5.7,3.3l0-27.5l23.8-13.8V120L124.1,130.5z
		 M47.2,32.2L71,45.9L47.2,59.7L23.4,45.9L47.2,32.2z M57.7,26.1L80.4,13l2.8,1.6l21,12.1L80.4,40.5L56.6,26.7L57.7,26.1z
		 M137.4,45.9l-23.8,13.7L89.8,45.9l23.8-13.7L137.4,45.9z M142.2,81.6l-23.8,13.8l0-27.5l23.8-13.7V81.6z M42.4,133.8L18.6,120
		V92.5l23.8,13.8L42.4,133.8z M80.4,78.9L56.6,65.1l23.8-13.8l23.8,13.8L80.4,78.9z M18.6,81.6V54.1l23.8,13.7l0,27.5L18.6,81.6z
		 M51.9,73.3l23.8,13.8v27.5l-23.8-13.8L51.9,73.3z M85.1,87.1l23.8-13.8l0,27.5l-23.8,13.8V87.1z M51.9,111.7l23.8,13.7v27.5
		l-23.8-13.7L51.9,111.7z M85.1,125.4l23.8-13.7l0,27.5l-23.8,13.7V125.4z"/>
</g>
</svg>
